<?xml version="1.0" encoding="UTF-8" standalone="no"?>
<!DOCTYPE svg PUBLIC "-//W3C//DTD SVG 1.1//EN"
 "http://www.w3.org/Graphics/SVG/1.1/DTD/svg11.dtd">
<!-- Generated by graphviz version 14.1.5 (20260411.2331)
 -->
<!-- Title: G Pages: 1 -->
<svg width="668pt" height="368pt"
 viewBox="0.00 0.00 668.00 368.00" xmlns="http://www.w3.org/2000/svg" xmlns:xlink="http://www.w3.org/1999/xlink">
<g id="graph0" class="graph" transform="scale(1 1) rotate(0) translate(4 364)">
<title>G</title>
<polygon fill="white" stroke="none" points="-4,4 -4,-364 664,-364 664,4 -4,4"/>
<!-- data.aws_caller_identity.current -->
<g id="node1" class="node">
<title>data.aws_caller_identity.current</title>
<polygon fill="none" stroke="black" points="621,-36 416,-36 416,0 621,0 621,-36"/>
<text xml:space="preserve" text-anchor="middle" x="518.5" y="-12.2" font-family="sans-serif" font-size="14.00">data.aws_caller_identity.current</text>
</g>
<!-- aws_internet_gateway.main -->
<g id="node2" class="node">
<title>aws_internet_gateway.main</title>
<polygon fill="none" stroke="black" points="331.25,-198 148,-198 148,-162 331.25,-162 331.25,-198"/>
<text xml:space="preserve" text-anchor="middle" x="239.62" y="-174.2" font-family="sans-serif" font-size="14.00">aws_internet_gateway.main</text>
</g>
<!-- aws_vpc.main -->
<g id="node13" class="node">
<title>aws_vpc.main</title>
<polygon fill="none" stroke="black" points="102.25,-171 0,-171 0,-135 102.25,-135 102.25,-171"/>
<text xml:space="preserve" text-anchor="middle" x="51.12" y="-147.2" font-family="sans-serif" font-size="14.00">aws_vpc.main</text>
</g>
<!-- aws_internet_gateway.main&#45;&gt;aws_vpc.main -->
<g id="edge1" class="edge">
<title>aws_internet_gateway.main&#45;&gt;aws_vpc.main</title>
<path fill="none" stroke="black" d="M147.56,-166.82C136.22,-165.17 124.84,-163.53 114.08,-161.97"/>
<polygon fill="black" stroke="black" points="114.59,-158.51 104.19,-160.54 113.58,-165.43 114.59,-158.51"/>
</g>
<!-- aws_route.public_internet -->
<g id="node3" class="node">
<title>aws_route.public_internet</title>
<polygon fill="none" stroke="black" points="603.38,-198 433.62,-198 433.62,-162 603.38,-162 603.38,-198"/>
<text xml:space="preserve" text-anchor="middle" x="518.5" y="-174.2" font-family="sans-serif" font-size="14.00">aws_route.public_internet</text>
</g>
<!-- aws_route.public_internet&#45;&gt;aws_internet_gateway.main -->
<g id="edge2" class="edge">
<title>aws_route.public_internet&#45;&gt;aws_internet_gateway.main</title>
<path fill="none" stroke="black" d="M433.3,-180C404.8,-180 372.66,-180 342.92,-180"/>
<polygon fill="black" stroke="black" points="343.16,-176.5 333.16,-180 343.16,-183.5 343.16,-176.5"/>
</g>
<!-- aws_route_table.public -->
<g id="node7" class="node">
<title>aws_route_table.public</title>
<polygon fill="none" stroke="black" points="316.62,-144 162.62,-144 162.62,-108 316.62,-108 316.62,-144"/>
<text xml:space="preserve" text-anchor="middle" x="239.62" y="-120.2" font-family="sans-serif" font-size="14.00">aws_route_table.public</text>
</g>
<!-- aws_route.public_internet&#45;&gt;aws_route_table.public -->
<g id="edge3" class="edge">
<title>aws_route.public_internet&#45;&gt;aws_route_table.public</title>
<path fill="none" stroke="black" d="M433.16,-163.87C414.65,-160.31 395.16,-156.54 377,-153 361.22,-149.92 344.41,-146.62 328.19,-143.41"/>
<polygon fill="black" stroke="black" points="329.04,-140.01 318.55,-141.51 327.68,-146.88 329.04,-140.01"/>
</g>
<!-- aws_route.to_tiger_private -->
<g id="node4" class="node">
<title>aws_route.to_tiger_private</title>
<polygon fill="none" stroke="black" points="606,-306 431,-306 431,-270 606,-270 606,-306"/>
<text xml:space="preserve" text-anchor="middle" x="518.5" y="-282.2" font-family="sans-serif" font-size="14.00">aws_route.to_tiger_private</text>
</g>
<!-- aws_route_table.private -->
<g id="node6" class="node">
<title>aws_route_table.private</title>
<polygon fill="none" stroke="black" points="319.25,-306 160,-306 160,-270 319.25,-270 319.25,-306"/>
<text xml:space="preserve" text-anchor="middle" x="239.62" y="-282.2" font-family="sans-serif" font-size="14.00">aws_route_table.private</text>
</g>
<!-- aws_route.to_tiger_private&#45;&gt;aws_route_table.private -->
<g id="edge4" class="edge">
<title>aws_route.to_tiger_private&#45;&gt;aws_route_table.private</title>
<path fill="none" stroke="black" d="M430.65,-288C398.88,-288 362.87,-288 330.8,-288"/>
<polygon fill="black" stroke="black" points="331.16,-284.5 321.16,-288 331.16,-291.5 331.16,-284.5"/>
</g>
<!-- aws_route.to_tiger_public -->
<g id="node5" class="node">
<title>aws_route.to_tiger_public</title>
<polygon fill="none" stroke="black" points="603.38,-144 433.62,-144 433.62,-108 603.38,-108 603.38,-144"/>
<text xml:space="preserve" text-anchor="middle" x="518.5" y="-120.2" font-family="sans-serif" font-size="14.00">aws_route.to_tiger_public</text>
</g>
<!-- aws_route.to_tiger_public&#45;&gt;aws_route_table.public -->
<g id="edge5" class="edge">
<title>aws_route.to_tiger_public&#45;&gt;aws_route_table.public</title>
<path fill="none" stroke="black" d="M433.3,-126C400,-126 361.72,-126 328.1,-126"/>
<polygon fill="black" stroke="black" points="328.4,-122.5 318.4,-126 328.4,-129.5 328.4,-122.5"/>
</g>
<!-- aws_route_table.private&#45;&gt;aws_vpc.main -->
<g id="edge6" class="edge">
<title>aws_route_table.private&#45;&gt;aws_vpc.main</title>
<path fill="none" stroke="black" d="M159.53,-271.97C152.05,-268.92 144.82,-265.3 138.25,-261 107.36,-240.75 82.47,-205.78 67.54,-181.13"/>
<polygon fill="black" stroke="black" points="70.6,-179.43 62.52,-172.58 64.56,-182.97 70.6,-179.43"/>
</g>
<!-- aws_route_table.public&#45;&gt;aws_vpc.main -->
<g id="edge7" class="edge">
<title>aws_route_table.public&#45;&gt;aws_vpc.main</title>
<path fill="none" stroke="black" d="M162.23,-137.06C146.04,-139.4 129.15,-141.85 113.6,-144.1"/>
<polygon fill="black" stroke="black" points="113.43,-140.59 104.04,-145.48 114.44,-147.52 113.43,-140.59"/>
</g>
<!-- aws_route_table_association.private -->
<g id="node8" class="node">
<title>aws_route_table_association.private</title>
<polygon fill="none" stroke="black" points="635.62,-252 401.38,-252 401.38,-216 635.62,-216 635.62,-252"/>
<text xml:space="preserve" text-anchor="middle" x="518.5" y="-228.2" font-family="sans-serif" font-size="14.00">aws_route_table_association.private</text>
</g>
<!-- aws_route_table_association.private&#45;&gt;aws_route_table.private -->
<g id="edge8" class="edge">
<title>aws_route_table_association.private&#45;&gt;aws_route_table.private</title>
<path fill="none" stroke="black" d="M421.12,-252.45C406.34,-255.3 391.26,-258.22 377,-261 362.04,-263.92 346.15,-267.04 330.72,-270.09"/>
<polygon fill="black" stroke="black" points="330.19,-266.63 321.06,-272 331.55,-273.49 330.19,-266.63"/>
</g>
<!-- aws_subnet.private -->
<g id="node11" class="node">
<title>aws_subnet.private</title>
<polygon fill="none" stroke="black" points="305.75,-252 173.5,-252 173.5,-216 305.75,-216 305.75,-252"/>
<text xml:space="preserve" text-anchor="middle" x="239.62" y="-228.2" font-family="sans-serif" font-size="14.00">aws_subnet.private</text>
</g>
<!-- aws_route_table_association.private&#45;&gt;aws_subnet.private -->
<g id="edge9" class="edge">
<title>aws_route_table_association.private&#45;&gt;aws_subnet.private</title>
<path fill="none" stroke="black" d="M400.88,-234C372.69,-234 343.26,-234 317.42,-234"/>
<polygon fill="black" stroke="black" points="317.72,-230.5 307.72,-234 317.72,-237.5 317.72,-230.5"/>
</g>
<!-- aws_route_table_association.public -->
<g id="node9" class="node">
<title>aws_route_table_association.public</title>
<polygon fill="none" stroke="black" points="633,-90 404,-90 404,-54 633,-54 633,-90"/>
<text xml:space="preserve" text-anchor="middle" x="518.5" y="-66.2" font-family="sans-serif" font-size="14.00">aws_route_table_association.public</text>
</g>
<!-- aws_route_table_association.public&#45;&gt;aws_route_table.public -->
<g id="edge10" class="edge">
<title>aws_route_table_association.public&#45;&gt;aws_route_table.public</title>
<path fill="none" stroke="black" d="M421.12,-90.45C406.34,-93.3 391.26,-96.22 377,-99 361.22,-102.08 344.41,-105.38 328.19,-108.59"/>
<polygon fill="black" stroke="black" points="327.68,-105.12 318.55,-110.49 329.04,-111.99 327.68,-105.12"/>
</g>
<!-- aws_subnet.public -->
<g id="node12" class="node">
<title>aws_subnet.public</title>
<polygon fill="none" stroke="black" points="303.12,-90 176.12,-90 176.12,-54 303.12,-54 303.12,-90"/>
<text xml:space="preserve" text-anchor="middle" x="239.62" y="-66.2" font-family="sans-serif" font-size="14.00">aws_subnet.public</text>
</g>
<!-- aws_route_table_association.public&#45;&gt;aws_subnet.public -->
<g id="edge11" class="edge">
<title>aws_route_table_association.public&#45;&gt;aws_subnet.public</title>
<path fill="none" stroke="black" d="M403.69,-72C373.67,-72 342.06,-72 314.74,-72"/>
<polygon fill="black" stroke="black" points="314.83,-68.5 304.83,-72 314.83,-75.5 314.83,-68.5"/>
</g>
<!-- aws_security_group.db_egress -->
<g id="node10" class="node">
<title>aws_security_group.db_egress</title>
<polygon fill="none" stroke="black" points="341,-36 138.25,-36 138.25,0 341,0 341,-36"/>
<text xml:space="preserve" text-anchor="middle" x="239.62" y="-12.2" font-family="sans-serif" font-size="14.00">aws_security_group.db_egress</text>
</g>
<!-- aws_security_group.db_egress&#45;&gt;aws_vpc.main -->
<g id="edge12" class="edge">
<title>aws_security_group.db_egress&#45;&gt;aws_vpc.main</title>
<path fill="none" stroke="black" d="M153.91,-36.45C148.43,-38.95 143.16,-41.78 138.25,-45 107.36,-65.25 82.47,-100.22 67.54,-124.87"/>
<polygon fill="black" stroke="black" points="64.56,-123.03 62.52,-133.42 70.6,-126.57 64.56,-123.03"/>
</g>
<!-- aws_subnet.private&#45;&gt;aws_vpc.main -->
<g id="edge13" class="edge">
<title>aws_subnet.private&#45;&gt;aws_vpc.main</title>
<path fill="none" stroke="black" d="M173.13,-219.41C161.31,-215.93 149.25,-211.8 138.25,-207 120.34,-199.18 101.8,-188.03 86.54,-177.88"/>
<polygon fill="black" stroke="black" points="88.51,-174.99 78.27,-172.25 84.57,-180.77 88.51,-174.99"/>
</g>
<!-- aws_subnet.public&#45;&gt;aws_vpc.main -->
<g id="edge14" class="edge">
<title>aws_subnet.public&#45;&gt;aws_vpc.main</title>
<path fill="none" stroke="black" d="M175.79,-85.82C163.13,-89.46 150.08,-93.84 138.25,-99 120.34,-106.82 101.8,-117.97 86.54,-128.12"/>
<polygon fill="black" stroke="black" points="84.57,-125.23 78.27,-133.75 88.51,-131.01 84.57,-125.23"/>
</g>
<!-- aws_vpc_peering_connection_accepter.tiger -->
<g id="node14" class="node">
<title>aws_vpc_peering_connection_accepter.tiger</title>
<polygon fill="none" stroke="black" points="660,-360 377,-360 377,-324 660,-324 660,-360"/>
<text xml:space="preserve" text-anchor="middle" x="518.5" y="-336.2" font-family="sans-serif" font-size="14.00">aws_vpc_peering_connection_accepter.tiger</text>
</g>
</g>
</svg>
